<?xml version="1.0" encoding="iso-8859-1"?>
<!-- Generator: Adobe Illustrator 19.0.0, SVG Export Plug-In . SVG Version: 6.00 Build 0)  -->
<svg version="1.1" id="Capa_1" xmlns="http://www.w3.org/2000/svg" xmlns:xlink="http://www.w3.org/1999/xlink" x="0px" y="0px"
	 viewBox="0 0 512 512" style="enable-background:new 0 0 512 512;" xml:space="preserve">
<g>
	<circle style="fill:#FF5A6E;" cx="180" cy="23.5" r="16"/>
	<circle style="fill:#FF5A6E;" cx="308" cy="48" r="16"/>
</g>
<path style="fill:#B4EBFA;" d="M244,504.5L244,504.5c-35.346,0-64-28.654-64-64V128h128v312.5C308,475.846,279.346,504.5,244,504.5z
	"/>
<g>
	<path style="fill:#83DDF2;" d="M212,440.5V128h-32v312.5c0,35.346,28.654,64,64,64l0,0c5.525,0,10.886-0.7,16-2.016
		C232.396,495.379,212,470.322,212,440.5z"/>
	<rect x="180" y="128" style="fill:#83DDF2;" width="128" height="16"/>
</g>
<path style="fill:#FF5A6E;" d="M244,472.5L244,472.5c-17.673,0-32-14.327-32-32V304h64v136.5C276,458.173,261.673,472.5,244,472.5z"
	/>
<path style="fill:#D72850;" d="M236,440.5V304h-24v136.5c0,17.673,14.327,32,32,32c4.34,0,8.226-0.868,12-2.434
	C244.406,465.257,236,453.833,236,440.5z"/>
<g>
	<rect x="228" y="264.5" style="fill:#FFFFFF;" width="16" height="15"/>
	<rect x="228" y="216.5" style="fill:#FFFFFF;" width="16" height="15"/>
	<rect x="228" y="168.5" style="fill:#FFFFFF;" width="16" height="15"/>
</g>
<rect x="148" y="96" style="fill:#B4EBFA;" width="192" height="32"/>
<g>
	<rect x="148" y="112" style="fill:#83DDF2;" width="192" height="16"/>
	<rect x="148" y="96" style="fill:#83DDF2;" width="64" height="32"/>
</g>
<path d="M180,47c12.958,0,23.5-10.542,23.5-23.5S192.958,0,180,0s-23.5,10.542-23.5,23.5S167.042,47,180,47z M180,15
	c4.687,0,8.5,3.813,8.5,8.5S184.687,32,180,32s-8.5-3.813-8.5-8.5S175.313,15,180,15z"/>
<path d="M308,71.5c12.958,0,23.5-10.542,23.5-23.5S320.958,24.5,308,24.5S284.5,35.042,284.5,48S295.042,71.5,308,71.5z M308,39.5
	c4.686,0,8.5,3.813,8.5,8.5s-3.814,8.5-8.5,8.5s-8.5-3.813-8.5-8.5S303.314,39.5,308,39.5z"/>
<path d="M204,336v104.5c0,21.78,17.72,39.5,39.5,39.5s39.5-17.72,39.5-39.5V304h-15v136.5c0,13.509-10.99,24.5-24.5,24.5
	c-13.509,0-24.5-10.991-24.5-24.5V336H204z"/>
<rect x="268" y="176" width="15" height="96"/>
<path d="M140,136h32v304.5c0,39.425,32.075,71.5,71.5,71.5s71.5-32.075,71.5-71.5V160h-15v280.5c0,31.154-25.346,56.5-56.5,56.5
	S187,471.654,187,440.5V280h25v-15h-25v-33h25v-15h-25v-33h25v-15h-25v-33h160V89H140V136z M155,104h177v17H155V104z"/>
<rect x="356" y="73" width="16" height="15"/>
<rect x="228" y="25" width="16" height="15"/>
<rect x="148" y="57" width="16" height="15"/>
<g>
</g>
<g>
</g>
<g>
</g>
<g>
</g>
<g>
</g>
<g>
</g>
<g>
</g>
<g>
</g>
<g>
</g>
<g>
</g>
<g>
</g>
<g>
</g>
<g>
</g>
<g>
</g>
<g>
</g>
</svg>
